# xmcd
# 
# Track frame offsets:
#     150
#     13844
#     24206
#     36293
#     68650
#     86251
#     95720
#     124223
#     141030
#     167438
#     185397
#     200900
#     238459
#     255768
#     276116
#     298380
#     321818
# 
# Disc length: 4734
# 
# Revision: 1
# Processed by: cddbd v1.5.2PL0 Copyright (c) Steve Scherf et al.
# Submitted via: fre:ac v1.0.31
# 
DISCID=f4127c11
DTITLE=Buddy Guy - The Definitive Buddy Guy
DYEAR=2009
DGENRE=Blues
TTITLE0=Sit And Cry (The Blues)
TTITLE1=First Time I Met The Blues
TTITLE2=Ten Years Ago
TTITLE3=Stone Crazy
TTITLE4=When My Left Eye Jumps
TTITLE5=Hoodoo Man Blues
TTITLE6=A Man And The Blues
TTITLE7=I Got My Eyes on You (live)
TTITLE8=Five Long Years
TTITLE9=A Man Of Many Words
TTITLE10=The Things I Used To Do (live)
TTITLE11=When I Left Home
TTITLE12=Give Me My Coat And Shoes
TTITLE13=She Suits Me To A "T"
TTITLE14=Checkin' On My Baby (live)
TTITLE15=Let Me Love You Baby (live)
TTITLE16=Baby Please Don't Leave Me
EXTD=
EXTT0=
EXTT1=
EXTT2=
EXTT3=
EXTT4=
EXTT5=
EXTT6=
EXTT7=
EXTT8=
EXTT9=
EXTT10=
EXTT11=
EXTT12=
EXTT13=
EXTT14=
EXTT15=
EXTT16=
PLAYORDER=
